<svg width="20" height="20" viewBox="0 0 20 20" fill="none" xmlns="http://www.w3.org/2000/svg">
<path d="M16.4803 6.14544L11.7322 2.90854C10.9334 2.36382 9.90021 2.36382 9.10147 2.90854L4.35335 6.14544C3.71474 6.58103 3.33301 7.30209 3.33301 8.07509V14.3687C3.33301 15.6564 4.38052 16.704 5.66822 16.704H15.1645C16.4522 16.704 17.4997 15.6564 17.4997 14.3687V8.07462C17.5002 7.30209 17.1184 6.58055 16.4803 6.14544ZM12.8921 15.8456H7.94149V11.1967C7.94149 10.9079 8.17644 10.6724 8.46572 10.6724H12.3684C12.6572 10.6724 12.8926 10.9074 12.8926 11.1967L12.8921 15.8456ZM16.6418 14.3683C16.6418 15.1827 15.9789 15.8456 15.1645 15.8456H13.75V11.1967C13.75 10.4346 13.1295 9.81459 12.3679 9.81459H8.46524C7.7032 9.81459 7.08318 10.4346 7.08318 11.1967V15.8456H5.6687C4.85424 15.8456 4.19132 15.1827 4.19132 14.3683V8.07462C4.19132 7.58565 4.43247 7.12957 4.8366 6.85363L9.58472 3.61673C9.8373 3.44469 10.1275 3.35843 10.4168 3.35843C10.7061 3.35843 10.9963 3.44469 11.2489 3.61673L15.997 6.85363C16.4012 7.12909 16.6423 7.58565 16.6423 8.07462L16.6418 14.3683Z" fill="black" stroke="black" stroke-width="0.5"/>
<path d="M12.2514 7.08621H8.58321C8.34636 7.08621 8.1543 7.27827 8.1543 7.51513C8.1543 7.75199 8.34636 7.94405 8.58321 7.94405H12.2514C12.4883 7.94405 12.6803 7.75199 12.6803 7.51513C12.6803 7.27827 12.4883 7.08621 12.2514 7.08621Z" fill="black" stroke="black" stroke-width="0.5"/>
</svg>
