<svg width="17" height="18" viewBox="0 0 17 18" fill="none" xmlns="http://www.w3.org/2000/svg">
<path d="M11.2329 8.30717L9.35175 6.42598C9.03134 6.10558 9.03134 5.5861 9.35175 5.2657C9.67215 4.94529 10.1916 4.94529 10.512 5.2657L13.7938 8.54748C14.1142 8.86788 14.1142 9.38736 13.7938 9.70776L10.512 12.9895C10.1916 13.3099 9.67215 13.3099 9.35175 12.9895C9.03134 12.6691 9.03134 12.1497 9.35175 11.8293L11.2329 9.94806H5.00922C4.5561 9.94806 4.18878 9.58074 4.18878 9.12762C4.18878 8.6745 4.5561 8.30717 5.00922 8.30717H11.2329ZM16.144 4.90202C16.3774 5.29042 16.2517 5.79446 15.8633 6.02783C15.4749 6.26121 14.9709 6.13554 14.7375 5.74714C12.8705 2.63995 8.83815 1.63456 5.73096 3.50155C2.62377 5.36854 1.61839 9.40091 3.48538 12.5081C5.35237 15.6153 9.38474 16.6207 12.4919 14.7537C13.4242 14.1935 14.1861 13.4275 14.7338 12.5171C14.9674 12.1288 15.4715 12.0034 15.8598 12.237C16.248 12.4706 16.3735 12.9747 16.1399 13.3629C15.4547 14.502 14.5007 15.461 13.337 16.1602C9.45306 18.4939 4.4126 17.2372 2.07886 13.3532C-0.254876 9.46923 1.00185 4.42877 4.88584 2.09503C8.76983 -0.238702 13.8103 1.01803 16.144 4.90202Z" fill="black"/>
</svg>
