<svg width="20" height="20" viewBox="0 0 20 20" fill="none" xmlns="http://www.w3.org/2000/svg">
<path d="M9.62753 1.66687C9.49753 1.67012 9.37218 1.71585 9.27063 1.79707C9.27063 1.79707 8.72727 2.23234 8.10459 2.73061C6.96242 3.64445 5.66788 4.34926 4.27982 4.81156C3.54401 5.05682 2.90689 5.26844 2.90689 5.26844C2.78834 5.30799 2.68525 5.38384 2.61223 5.48525C2.5392 5.58666 2.49993 5.70847 2.5 5.83344V8.39104C2.5 12.8219 5.27563 16.7831 9.43908 18.2973C9.50391 18.3209 9.57235 18.3331 9.64136 18.3333H9.64371C9.71272 18.3331 9.78116 18.3209 9.84599 18.2973C14.0096 16.7833 16.7851 12.8222 16.7851 8.39104V5.83344C16.7851 5.70847 16.7459 5.58665 16.6728 5.48525C16.5998 5.38384 16.4967 5.30799 16.3782 5.26844C16.3782 5.26844 15.741 5.05682 15.0052 4.81156C13.6172 4.34927 12.3227 3.64445 11.1805 2.73061C10.5578 2.23236 10.0144 1.79707 10.0144 1.79707C9.9048 1.70937 9.76789 1.66325 9.62753 1.66687ZM9.64264 3.02468C9.84667 3.18789 10.0137 3.32123 10.4378 3.66061C11.6896 4.66219 13.1085 5.43366 14.6299 5.94037C15.1468 6.11267 15.3627 6.18496 15.5948 6.26239V8.39102C15.5948 12.2464 13.2161 15.6652 9.64264 17.067C6.06917 15.6651 3.69044 12.2463 3.69044 8.39102V6.26239C3.92255 6.18497 4.13845 6.11267 4.65535 5.94037C6.17673 5.43365 7.59568 4.66219 8.84748 3.66061C9.27158 3.32126 9.43863 3.18791 9.64264 3.02468Z" fill="black" stroke="black" stroke-width="0.2"/>
<path fill-rule="evenodd" clip-rule="evenodd" d="M9.64491 8.21188C9.48818 8.21189 9.33298 8.24279 9.1882 8.30281C9.04341 8.36282 8.91187 8.45079 8.8011 8.56167C8.69032 8.67256 8.60249 8.80418 8.54262 8.94903C8.48274 9.09387 8.452 9.2491 8.45215 9.40583C8.45238 9.61522 8.50772 9.82085 8.61261 10.0021C8.7175 10.1833 8.86825 10.3337 9.04969 10.4382V11.7867C9.04858 11.8656 9.06315 11.9439 9.09256 12.0171C9.12197 12.0903 9.16564 12.1569 9.22102 12.2131C9.2764 12.2692 9.34239 12.3138 9.41516 12.3443C9.48793 12.3747 9.56603 12.3904 9.64491 12.3904C9.72379 12.3904 9.80189 12.3747 9.87466 12.3443C9.94743 12.3138 10.0134 12.2692 10.0688 12.2131C10.1242 12.1569 10.1679 12.0903 10.1973 12.0171C10.2267 11.9439 10.2412 11.8656 10.2401 11.7867V10.437C10.4214 10.3326 10.572 10.1824 10.6769 10.0014C10.7818 9.8204 10.8372 9.61501 10.8377 9.40583C10.8378 9.2491 10.8071 9.09387 10.7472 8.94903C10.6873 8.80418 10.5995 8.67256 10.4887 8.56167C10.378 8.45079 10.2464 8.36282 10.1016 8.30281C9.95684 8.24279 9.80164 8.21189 9.64491 8.21188Z" fill="black" stroke="black" stroke-width="0.2"/>
</svg>
