<svg width="20" height="25" viewBox="0 0 20 25" fill="none" xmlns="http://www.w3.org/2000/svg">
<path d="M7.84337 23.9952C7.77614 23.9856 7.51682 23.9424 7.2671 23.8992C6.68603 23.7983 5.67756 23.4718 5.15412 23.2076C1.40357 21.3204 -0.325234 17.152 1.00018 13.1854C1.76374 10.8995 3.59339 9.01222 5.87445 8.16223C6.91654 7.77324 7.84817 7.62438 8.99591 7.66279C9.86991 7.69161 10.379 7.76844 11.1089 7.98454C11.5027 8.1046 12.5159 8.51279 12.588 8.58002C12.6168 8.61364 11.9637 9.8142 11.9061 9.83821C11.8724 9.85261 11.69 9.78538 11.4931 9.69414C10.3549 9.1755 8.90466 8.98821 7.62727 9.20431C5.23095 9.6077 3.15639 11.3749 2.39283 13.6656C2.1095 14.5156 2.05668 14.8709 2.05668 15.8602C2.05668 16.8543 2.1143 17.2192 2.40244 18.0404C2.61373 18.6455 2.81063 19.0345 3.19 19.6108C3.79989 20.5184 4.6883 21.3059 5.68236 21.8102C6.73886 22.348 7.55043 22.5449 8.70777 22.5497C9.89873 22.5545 10.7967 22.3432 11.8292 21.8102C13.1498 21.1283 14.1967 20.0478 14.8258 18.7223C15.0611 18.2277 15.1908 17.8579 15.3445 17.2288C15.4501 16.7966 15.4501 16.7822 15.4645 11.2645L15.4837 5.72749L14.4849 5.72269C13.9374 5.71789 13.4716 5.71789 13.4524 5.72269C13.3659 5.7371 13.4428 5.56902 13.8606 4.84388C14.1103 4.41648 14.7394 3.33118 15.2628 2.42355C15.7863 1.51593 16.2281 0.790793 16.2473 0.814804C16.2665 0.834013 16.497 1.2326 16.7611 1.69361C17.0252 2.15463 17.6447 3.23033 18.1346 4.08513C18.6292 4.93512 19.0326 5.65546 19.0326 5.67947C19.0326 5.70828 19.0182 5.72269 18.999 5.72269C18.975 5.71789 18.5139 5.71789 17.9665 5.72269L16.9676 5.72749V10.8803C16.9676 16.1868 16.9532 16.6718 16.7707 17.5602C16.1945 20.3311 14.0863 22.6986 11.3874 23.5966C10.4606 23.9088 10.0188 23.9808 8.92387 24C8.39563 24.0096 7.9106 24.0096 7.84337 23.9952Z" fill="#91B243" stroke="#91B243" stroke-width="0.3"/>
<path d="M8.2563 20.9091V11.8182H8.83869V20.9091H8.2563ZM9.80105 14.8189C9.77264 14.5324 9.65072 14.3099 9.43528 14.1513C9.21984 13.9927 8.92747 13.9134 8.55815 13.9134C8.3072 13.9134 8.09532 13.9489 7.9225 14.0199C7.74967 14.0885 7.6171 14.1844 7.52477 14.3075C7.43481 14.4306 7.38983 14.5703 7.38983 14.7266C7.38509 14.8568 7.41232 14.9704 7.4715 15.0675C7.53306 15.1645 7.6171 15.2486 7.72363 15.3196C7.83017 15.3883 7.95327 15.4486 8.09295 15.5007C8.23263 15.5504 8.38178 15.593 8.54039 15.6286L9.1938 15.7848C9.51104 15.8558 9.80223 15.9505 10.0674 16.0689C10.3325 16.1873 10.5622 16.3329 10.7563 16.5057C10.9504 16.6785 11.1008 16.8821 11.2073 17.1165C11.3162 17.3509 11.3718 17.6196 11.3742 17.9226C11.3718 18.3677 11.2582 18.7536 11.0333 19.0803C10.8108 19.4046 10.4888 19.6567 10.0674 19.8366C9.64835 20.0142 9.1429 20.103 8.55105 20.103C7.96393 20.103 7.45256 20.013 7.01696 19.8331C6.58372 19.6532 6.24518 19.3868 6.00133 19.0341C5.75985 18.679 5.6332 18.2398 5.62136 17.7166H7.10929C7.12586 17.9605 7.1957 18.1641 7.3188 18.3274C7.44428 18.4884 7.61118 18.6103 7.81951 18.6932C8.03021 18.7737 8.26814 18.8139 8.53329 18.8139C8.79371 18.8139 9.0198 18.776 9.21156 18.7003C9.40569 18.6245 9.55602 18.5192 9.66255 18.3842C9.76909 18.2493 9.82235 18.0942 9.82235 17.919C9.82235 17.7557 9.77382 17.6184 9.67676 17.5071C9.58206 17.3958 9.44238 17.3011 9.25772 17.223C9.07543 17.1449 8.85171 17.0739 8.58656 17.0099L7.79466 16.8111C7.18149 16.6619 6.69735 16.4287 6.34224 16.1115C5.98713 15.7943 5.81075 15.367 5.81312 14.8295C5.81075 14.3892 5.92794 14.0045 6.16468 13.6754C6.40379 13.3464 6.73168 13.0895 7.14835 12.9048C7.56502 12.7202 8.0385 12.6278 8.5688 12.6278C9.10858 12.6278 9.57969 12.7202 9.98216 12.9048C10.387 13.0895 10.7019 13.3464 10.9268 13.6754C11.1517 14.0045 11.2677 14.3857 11.2748 14.8189H9.80105Z" fill="#91B243"/>
</svg>
