<svg width="20" height="25" viewBox="0 0 20 25" fill="none" xmlns="http://www.w3.org/2000/svg">
<path d="M7.81114 23.9885C7.74391 23.9789 7.48459 23.9357 7.23487 23.8925C6.6538 23.7916 5.64533 23.4651 5.12189 23.2009C1.37134 21.3137 -0.357467 17.1453 0.967951 13.1787C1.73151 10.8928 3.56116 9.00552 5.84222 8.15553C6.88431 7.76655 7.81594 7.61768 8.96367 7.65609C9.83768 7.68491 10.3467 7.76174 11.0767 7.97784C11.4704 8.0979 12.4837 8.50609 12.5557 8.57332C12.5846 8.60694 11.9315 9.8075 11.8738 9.83151C11.8402 9.84591 11.6577 9.77868 11.4608 9.68744C10.3227 9.1688 8.87243 8.98151 7.59504 9.19761C5.19872 9.601 3.12415 11.3682 2.3606 13.6589C2.07727 14.5089 2.02444 14.8643 2.02444 15.8535C2.02444 16.8476 2.08207 17.2125 2.3702 18.0337C2.5815 18.6388 2.77839 19.0278 3.15777 19.6041C3.76765 20.5117 4.65607 21.2992 5.65013 21.8035C6.70662 22.3413 7.5182 22.5382 8.67554 22.543C9.8665 22.5478 10.7645 22.3365 11.797 21.8035C13.1176 21.1216 14.1645 20.0411 14.7936 18.7156C15.0289 18.221 15.1586 17.8512 15.3122 17.2221C15.4179 16.7899 15.4179 16.7755 15.4323 11.2578L15.4515 5.72079L14.4526 5.71599C13.9052 5.71119 13.4394 5.71119 13.4201 5.71599C13.3337 5.7304 13.4105 5.56232 13.8283 4.83718C14.0781 4.40978 14.7071 3.32448 15.2306 2.41685C15.754 1.50923 16.1958 0.784094 16.2151 0.808105C16.2343 0.827314 16.4648 1.2259 16.7289 1.68691C16.993 2.14793 17.6125 3.22363 18.1023 4.07843C18.597 4.92842 19.0003 5.64876 19.0003 5.67277C19.0003 5.70158 18.9859 5.71599 18.9667 5.71599C18.9427 5.71119 18.4817 5.71119 17.9343 5.71599L16.9354 5.72079V10.8736C16.9354 16.1801 16.921 16.6651 16.7385 17.5535C16.1622 20.3244 14.054 22.6919 11.3552 23.5899C10.4284 23.9021 9.98655 23.9741 8.89164 23.9933C8.36339 24.0029 7.87837 24.0029 7.81114 23.9885Z" fill="#666456" stroke="#666456" stroke-width="0.3"/>
<path d="M6.06527 11.8726C6.05667 11.9007 5.97925 12.1017 5.89322 12.3227C5.8115 12.5397 5.74268 12.7326 5.74268 12.7486C5.74268 12.7647 6.14269 12.7888 6.63734 12.7969C7.61803 12.821 7.79008 12.8531 8.07827 13.0741C8.16859 13.1424 8.27613 13.267 8.32344 13.3554C8.48689 13.6528 8.54711 13.6407 7.24812 13.6247L6.09108 13.6126L5.91473 14.0707C5.8201 14.3199 5.74268 14.5409 5.74268 14.561C5.74268 14.5811 6.32335 14.5971 7.07177 14.5971H8.40516L8.35785 14.7257C8.27613 14.9387 7.90622 15.2602 7.62663 15.3526C7.33845 15.4531 6.80509 15.5214 6.31475 15.5214C5.98785 15.5214 5.95774 15.5294 5.95344 15.6018C5.95344 15.646 5.95344 15.8067 5.95344 15.9634C5.95344 16.1161 5.95344 16.2688 5.95344 16.301C5.95774 16.3331 6.02656 16.3653 6.13409 16.3814C6.42228 16.4256 6.4825 16.4939 8.45248 18.9452L9.24821 19.9377L10.0353 19.9417H10.8225L10.7149 19.8091C10.2934 19.2867 8.82669 17.4784 8.41807 16.9761C8.13849 16.6385 7.91482 16.3452 7.91482 16.3211C7.91482 16.301 8.06967 16.2206 8.25462 16.1443C9.05466 15.8188 9.56221 15.3647 9.76437 14.7981L9.83319 14.6012L10.5085 14.5891L11.1795 14.577L11.3601 14.1029C11.4591 13.8457 11.5279 13.6327 11.5107 13.6287C11.4978 13.6287 11.1752 13.6287 10.7967 13.6327C9.97943 13.6407 9.8805 13.6247 9.84609 13.476C9.83319 13.4197 9.78587 13.271 9.73856 13.1505C9.69125 13.0299 9.63963 12.8973 9.62673 12.8571C9.60522 12.7928 9.66114 12.7888 10.3838 12.7888H11.1623L11.2096 12.6763C11.2354 12.616 11.3214 12.399 11.3989 12.1941L11.5408 11.8244H8.81379C6.66745 11.8244 6.07818 11.8364 6.06527 11.8726Z" fill="#666456" stroke="#666456" stroke-width="0.3"/>
</svg>
