<svg width="20" height="20" viewBox="0 0 20 20" fill="none" xmlns="http://www.w3.org/2000/svg">
<path d="M6.72285 2.00003C4.11851 2.00003 1.99951 4.11903 1.99951 6.72336V18H17.9995V7.17653H13.2937V2.00003H6.72285ZM12.3525 17.0589H2.94068V6.72336C2.94068 4.63786 4.63735 2.9412 6.72285 2.9412H12.3525V17.0589ZM17.0583 8.1177V17.0589H13.2937V8.1177H17.0583Z" fill="black" stroke="black" stroke-width="0.3"/>
<path d="M6.94529 11.3773H4.59229V12.3185H6.94529V11.3773Z" fill="black"/>
<path d="M6.94529 6.67136H4.59229V7.61252H6.94529V6.67136Z" fill="black"/>
<path d="M6.94529 9.02435H4.59229V9.96552H6.94529V9.02435Z" fill="black"/>
<path d="M10.7099 11.3773H8.35693V12.3185H10.7099V11.3773Z" fill="black"/>
<path d="M6.94529 13.7302H4.59229V14.6713H6.94529V13.7302Z" fill="black"/>
<path d="M10.7099 13.7302H8.35693V14.6713H10.7099V13.7302Z" fill="black"/>
<path d="M10.7099 6.67136H8.35693V7.61252H10.7099V6.67136Z" fill="black"/>
<path d="M10.7099 9.02435H8.35693V9.96552H10.7099V9.02435Z" fill="black"/>
<path d="M15.8862 9.495H14.0039V10.4362H15.8862V9.495Z" fill="black"/>
<path d="M15.8862 11.8478H14.0039V12.789H15.8862V11.8478Z" fill="black"/>
<path d="M15.8862 14.2008H14.0039V15.142H15.8862V14.2008Z" fill="black"/>
</svg>
