<svg width="20" height="20" viewBox="0 0 20 20" fill="none" xmlns="http://www.w3.org/2000/svg">
<path d="M9.58301 2.25875C4.77346 2.25875 0.833008 3.89965 0.833008 6.17323V6.24516L0.948139 6.96478L0.976922 7.0655L1.49501 8.40392C1.58571 8.64036 1.84807 8.76659 2.08506 8.67734L4.68992 7.69872C4.92838 7.60892 5.05378 7.33251 4.96338 7.09428L4.67555 6.33155C5.43274 6.07868 6.52995 5.91676 7.7409 5.81346V7.32454C7.46109 7.32454 6.87742 7.32454 6.81985 7.32454C5.7856 7.32454 5.00243 8.07534 4.56042 9.6128L3.15001 16.0889L3.13564 16.1897C3.13564 17.1399 3.91241 17.9166 4.86261 17.9166H14.3034C15.2536 17.9166 16.0304 17.1399 16.0304 16.1897L16.016 16.0889L14.6056 9.64154C14.1563 8.07525 13.3804 7.32454 12.3462 7.32454C12.3462 7.32454 11.6666 7.32454 11.4251 7.32454V5.81346C12.6541 5.91584 13.7626 6.07596 14.5193 6.33155L14.2171 7.12306C14.1274 7.3618 14.2514 7.62439 14.4905 7.71313L17.0953 8.67734C17.3314 8.76493 17.5944 8.65302 17.6854 8.41829L18.2035 7.07991C18.2164 7.04643 18.2274 7.00033 18.2322 6.96478L18.333 6.23079V6.17323C18.333 3.89965 14.3926 2.25875 9.58301 2.25875ZM9.58301 3.1798C13.9194 3.1798 17.3918 4.6195 17.412 6.15886L17.3112 6.80645L16.9802 7.65557L15.2388 7.00793L15.5555 6.17323C15.6422 5.94209 15.5237 5.67949 15.2964 5.5832C14.0962 5.07464 11.9745 4.77723 9.58301 4.77728C7.2078 4.77723 5.09159 5.07588 3.88399 5.5832C3.65525 5.67926 3.5369 5.9413 3.62495 6.17323L3.94156 6.99352L2.1858 7.65557L1.86919 6.82082V6.80645L1.76845 6.14444C1.81403 4.61158 5.26272 3.1798 9.58301 3.1798ZM9.58301 5.69833C9.91915 5.69833 10.1856 5.74291 10.5041 5.7559V7.32454C9.72374 7.32454 9.48068 7.32454 8.66195 7.32454V5.7559C8.98045 5.74254 9.24687 5.69828 9.58301 5.69833ZM6.81985 8.24559C7.16524 8.24559 12.3462 8.24559 12.3462 8.24559C12.9167 8.24559 13.3746 8.69359 13.7134 9.87181L15.1093 16.204C15.1016 16.6391 14.7402 16.9956 14.3034 16.9956H4.86261C4.42585 16.9956 4.06443 16.6391 4.05669 16.204C4.0566 16.1993 4.05669 16.1944 4.05669 16.1897L5.45264 9.84307C5.78413 8.69364 6.24935 8.24559 6.81985 8.24559ZM9.58301 10.0877C8.31131 10.0877 7.28038 11.1186 7.28038 12.3903C7.28038 13.662 8.31131 14.693 9.58301 14.693C10.8547 14.693 11.8856 13.662 11.8856 12.3903C11.8856 11.1186 10.8547 10.0877 9.58301 10.0877ZM9.58301 11.0088C10.3461 11.0088 10.9646 11.6273 10.9646 12.3903C10.9646 13.1534 10.3461 13.7719 9.58301 13.7719C8.81996 13.7719 8.20143 13.1534 8.20143 12.3903C8.20143 11.6273 8.81996 11.0088 9.58301 11.0088Z" fill="black" stroke="black" stroke-width="0.2"/>
</svg>
