<svg width="20" height="20" viewBox="0 0 20 20" fill="none" xmlns="http://www.w3.org/2000/svg">
<path fill-rule="evenodd" clip-rule="evenodd" d="M10.6175 4.28571C10.3426 3.80952 9.6553 3.80952 9.38037 4.28571L3.19446 15C2.91953 15.4762 3.26318 16.0714 3.81304 16.0714H7.83387C8.22837 16.0714 8.54816 16.3912 8.54816 16.7857C8.54816 17.1802 8.22837 17.5 7.83387 17.5H3.81304C2.16347 17.5 1.13249 15.7143 1.95728 14.2857L8.14316 3.57143C8.96794 2.14286 11.0299 2.14286 11.8547 3.57143L18.0406 14.2857C18.8654 15.7143 17.8344 17.5 16.1848 17.5H12.164C11.7695 17.5 11.4497 17.1802 11.4497 16.7857C11.4497 16.3912 11.7695 16.0714 12.164 16.0714H16.1848C16.7347 16.0714 17.0784 15.4762 16.8034 15L10.6175 4.28571Z" fill="black"/>
<path d="M9.99895 12.5C9.60445 12.5 9.28467 12.1802 9.28467 11.7857V8.21426C9.28467 7.81976 9.60445 7.49998 9.99895 7.49998C10.3935 7.49998 10.7132 7.81976 10.7132 8.21426V11.7857C10.7132 12.1802 10.3935 12.5 9.99895 12.5Z" fill="black"/>
<path d="M9.99895 14.6429C9.60445 14.6429 9.28467 14.3231 9.28467 13.9286C9.28467 13.5341 9.60445 13.2143 9.99895 13.2143C10.3935 13.2143 10.7132 13.5341 10.7132 13.9286C10.7132 14.3231 10.3935 14.6429 9.99895 14.6429Z" fill="black"/>
</svg>
