<svg width="20" height="20" viewBox="0 0 20 20" fill="none" xmlns="http://www.w3.org/2000/svg">
<path d="M9.64432 17.3205C8.00567 17.3105 6.37373 17.15 4.79101 16.8429C4.52928 16.7937 4.33969 16.5594 4.33969 16.2859V15.598C4.33969 13.2206 6.27418 11.2861 8.65162 11.2861H11.0676C11.8484 11.2861 12.144 11.2987 12.8196 11.6997C13.0595 11.8406 13.3677 11.7629 13.5092 11.5229C13.6507 11.2841 13.5718 10.9754 13.333 10.8334C12.9264 10.5923 12.9652 10.6077 12.515 10.4813C13.8114 9.61888 14.6682 8.14634 14.6682 6.47581C14.6682 3.82433 12.5111 1.66669 9.85908 1.66669C7.20704 1.66669 5.05051 3.82433 5.05051 6.47581C5.05051 8.14801 5.90954 9.62168 7.20816 10.4841C4.97557 11.1155 3.33301 13.1663 3.33301 15.598V16.2859C3.33301 17.0426 3.86767 17.693 4.60142 17.8311C6.24287 18.1499 7.93744 18.3171 9.63817 18.3272H9.64096C9.9178 18.3272 10.1426 18.1041 10.1443 17.8267C10.1465 17.5493 9.92227 17.3222 9.64432 17.3205ZM6.05719 6.47581C6.05719 4.37912 7.76295 2.67336 9.85963 2.67336C11.9563 2.67336 13.6615 4.37912 13.6615 6.47581C13.6615 8.5725 11.9563 10.2783 9.85963 10.2783C7.76295 10.2783 6.05719 8.5725 6.05719 6.47581Z" fill="black" stroke="black" stroke-width="0.5"/>
<path d="M17.807 11.3595C17.1051 10.6576 15.9629 10.6582 15.2616 11.3595L11.3539 15.2673C11.2077 15.414 11.1118 15.5999 11.0769 15.8047L10.847 17.1711C10.7932 17.4884 10.8965 17.813 11.124 18.0411C11.3123 18.2294 11.5673 18.3333 11.8296 18.3333C11.884 18.3333 11.9396 18.329 11.9947 18.3199L13.36 18.0882C13.5648 18.0539 13.7513 17.9585 13.8999 17.81L17.807 13.9034C18.5083 13.2021 18.5083 12.0607 17.807 11.3595ZM13.1454 17.0079L11.9568 17.209L12.1567 16.0205L14.7926 13.3849L15.7813 14.3729L13.1454 17.0079ZM17.028 13.1257L16.5597 13.594L15.571 12.606L16.0393 12.1377C16.3133 11.8645 16.7566 11.8657 17.0287 12.1377C17.1601 12.2698 17.2329 12.4446 17.2329 12.6317C17.2329 12.8182 17.1601 12.9936 17.028 13.1257Z" fill="black" stroke="black" stroke-width="0.3"/>
</svg>
