<svg width="20" height="20" viewBox="0 0 20 20" fill="none" xmlns="http://www.w3.org/2000/svg">
<path d="M16.2989 5.117H17.6392C17.8234 5.117 18 5.04372 18.1303 4.91327C18.2605 4.78282 18.3337 4.60589 18.3337 4.4214C18.3337 4.23692 18.2605 4.05999 18.1303 3.92954C18 3.79909 17.8234 3.72581 17.6392 3.72581H12.6809C12.5221 3.1349 12.1732 2.61291 11.6883 2.24066C11.2034 1.86841 10.6095 1.66667 9.99859 1.66667C9.38766 1.66667 8.79376 1.86841 8.30886 2.24066C7.82396 2.61291 7.4751 3.1349 7.3163 3.72581C7.28507 3.72416 7.25377 3.72416 7.22255 3.72581H2.36144C2.17726 3.72581 2.00062 3.79909 1.87039 3.92954C1.74016 4.05999 1.66699 4.23692 1.66699 4.4214C1.66699 4.60589 1.74016 4.78282 1.87039 4.91327C2.00062 5.04372 2.17726 5.117 2.36144 5.117H3.70171L1.9656 9.78793C1.77099 10.2953 1.66982 10.8338 1.66699 11.3774C1.66699 12.1153 1.95965 12.823 2.48058 13.3448C3.00152 13.8666 3.70806 14.1598 4.44477 14.1598C5.18148 14.1598 5.88802 13.8666 6.40895 13.3448C6.92989 12.823 7.22255 12.1153 7.22255 11.3774C7.22294 10.8334 7.12531 10.2937 6.93435 9.78445L5.18782 5.117H7.22255C7.25377 5.11865 7.28507 5.11865 7.3163 5.117C7.44128 5.59589 7.69155 6.03272 8.04129 6.38242C8.39102 6.73213 8.82756 6.98205 9.30588 7.10641V14.1598H8.61143C8.0589 14.1598 7.529 14.3796 7.1383 14.771C6.7476 15.1623 6.5281 15.6931 6.5281 16.2465V16.9421H5.13921C4.95504 16.9421 4.7784 17.0154 4.64817 17.1459C4.51793 17.2763 4.44477 17.4533 4.44477 17.6377C4.44477 17.8222 4.51793 17.9992 4.64817 18.1296C4.7784 18.2601 4.95504 18.3333 5.13921 18.3333H14.8614C15.0456 18.3333 15.2222 18.2601 15.3525 18.1296C15.4827 17.9992 15.5559 17.8222 15.5559 17.6377C15.5559 17.4533 15.4827 17.2763 15.3525 17.1459C15.2222 17.0154 15.0456 16.9421 14.8614 16.9421H13.4725V16.2465C13.4725 15.6931 13.2531 15.1623 12.8624 14.771C12.4717 14.3796 11.9417 14.1598 11.3892 14.1598H10.6948V7.10641C11.1724 6.98151 11.6083 6.73135 11.9574 6.38168C12.3064 6.03201 12.5562 5.59547 12.6809 5.117H14.8128L13.0767 9.78793C12.8821 10.2953 12.7809 10.8338 12.7781 11.3774C12.7781 12.1153 13.0708 12.823 13.5917 13.3448C14.1126 13.8666 14.8192 14.1598 15.5559 14.1598C16.2926 14.1598 16.9991 13.8666 17.5201 13.3448C18.041 12.823 18.3337 12.1153 18.3337 11.3774C18.334 10.8334 18.2364 10.2937 18.0455 9.78445L16.2989 5.117ZM5.83366 11.3774C5.83366 11.7463 5.68733 12.1002 5.42686 12.3611C5.16639 12.622 4.81313 12.7686 4.44477 12.7686C4.07641 12.7686 3.72314 12.622 3.46268 12.3611C3.20221 12.1002 3.05588 11.7463 3.05588 11.3774C3.05476 11.0006 3.12304 10.6268 3.25727 10.2748L4.44477 7.09945L5.63227 10.2748C5.7665 10.6268 5.83477 11.0006 5.83366 11.3774ZM12.0837 16.2465V16.9421H7.91699V16.2465C7.91699 16.0621 7.99015 15.8851 8.12039 15.7547C8.25062 15.6242 8.42726 15.551 8.61143 15.551H11.3892C11.5734 15.551 11.75 15.6242 11.8803 15.7547C12.0105 15.8851 12.0837 16.0621 12.0837 16.2465ZM10.0003 5.8126C9.72563 5.8126 9.4571 5.731 9.2287 5.57814C9.0003 5.42527 8.82228 5.208 8.71716 4.95379C8.61204 4.69958 8.58453 4.41986 8.63812 4.15C8.69171 3.88013 8.82399 3.63224 9.01823 3.43768C9.21247 3.24312 9.45995 3.11062 9.72937 3.05694C9.99878 3.00326 10.278 3.03081 10.5318 3.13611C10.7856 3.2414 11.0025 3.41972 11.1551 3.6485C11.3078 3.87728 11.3892 4.14625 11.3892 4.4214C11.3892 4.79037 11.2429 5.14423 10.9824 5.40513C10.7219 5.66602 10.3687 5.8126 10.0003 5.8126ZM15.5559 12.7686C15.1875 12.7686 14.8343 12.622 14.5738 12.3611C14.3133 12.1002 14.167 11.7463 14.167 11.3774C14.1659 11.0006 14.2341 10.6268 14.3684 10.2748L15.5559 7.09945L16.7434 10.2748C16.8776 10.6268 16.9459 11.0006 16.9448 11.3774C16.9448 11.7463 16.7984 12.1002 16.538 12.3611C16.2775 12.622 15.9242 12.7686 15.5559 12.7686Z" fill="black"/>
</svg>
