<svg width="34" height="32" viewBox="0 0 34 32" fill="none" xmlns="http://www.w3.org/2000/svg">
<circle cx="16.1302" cy="15.9999" r="12.7496" stroke="#DC831B"/>
<circle cx="16.1302" cy="16" r="15.3995" stroke="#DC831B"/>
<path d="M6.94164 25.297L4.88274 20.1949L7.42886 18.7249L7.77215 19.6075L6.24448 20.4895L6.7186 21.6707L7.88253 20.9987L8.21661 21.8173L7.04228 22.4953L7.58561 23.8444L9.13407 22.9504L9.49814 23.821L6.94164 25.297ZM11.1593 20.6587C11.1539 21.8813 11.1428 22.6221 11.1261 22.8811L9.98291 23.5411L10.2673 20.2177L7.97598 18.409L9.10874 17.755C9.18845 17.8291 9.36134 17.9925 9.62741 18.2454C9.89347 18.4982 10.0948 18.6868 10.2313 18.8113C10.3677 18.9357 10.4669 19.0355 10.5288 19.1106C10.5071 18.9291 10.5009 18.6463 10.5101 18.2623C10.5278 17.7809 10.5318 17.3398 10.5221 16.939L11.6652 16.279L11.4268 19.5621L13.7865 21.3451L12.6122 22.0231C12.4389 21.883 12.2401 21.7067 12.0159 21.4944C11.7917 21.2821 11.6094 21.1102 11.4689 20.9789C11.3284 20.8475 11.2252 20.7408 11.1593 20.6587ZM13.6773 16.0734C13.6288 16.1014 13.5804 16.1294 13.5319 16.1574C13.4834 16.1854 13.4334 16.2189 13.382 16.2578L14.1226 18.1165L14.4031 17.9545C14.7357 17.7625 14.8798 17.4761 14.8354 17.0953C14.8199 16.9564 14.778 16.7959 14.7097 16.6136C14.458 16.0015 14.1138 15.8214 13.6773 16.0734ZM12.0994 16.0283L13.3181 15.2832C13.9278 14.9312 14.4215 14.8263 14.7992 14.9685C15.1838 15.1067 15.4865 15.463 15.7074 16.0376C15.9552 16.6428 15.9824 17.1859 15.7891 17.667C15.6232 18.0677 15.2873 18.414 14.7816 18.706C14.7262 18.738 14.6707 18.77 14.6153 18.802C14.5599 18.834 14.5024 18.8625 14.443 18.8876L15.1248 20.5724L14.1583 21.1304L12.0994 16.0283ZM18.4789 18.636L17.4812 19.212L15.4223 14.1099L16.42 13.5339L18.4789 18.636ZM18.7803 15.0948L19.2288 14.8636C19.6237 14.6356 19.7172 14.2537 19.5095 13.7178C19.3006 13.164 18.9745 13.0151 18.5311 13.2711C18.4271 13.3311 18.296 13.416 18.1378 13.5259L18.7803 15.0948ZM19.4661 15.6827L19.0964 15.8823L19.885 17.8242L18.9393 18.3702L16.8804 13.268C16.8804 13.268 17.297 13.0137 18.1302 12.5049C18.733 12.1569 19.2147 12.0312 19.5753 12.1278C19.9498 12.2164 20.2644 12.5614 20.5191 13.1625C20.6797 13.5687 20.7285 13.9331 20.6654 14.2559C20.5983 14.5717 20.4739 14.8283 20.2922 15.0256L22.057 16.5702L20.9969 17.1822L19.4661 15.6827ZM22.3154 16.4209L20.2566 11.3188L22.8027 9.84881L23.146 10.7314L21.6183 11.6134L22.0924 12.7946L23.2563 12.1226L23.5904 12.9412L22.4161 13.6192L22.9594 14.9683L24.5079 14.0743L24.872 14.9449L22.3154 16.4209ZM26.3752 13.0932C26.7078 12.9012 26.8881 12.6215 26.9163 12.2543C26.9473 11.8761 26.8484 11.3928 26.6196 10.8044C26.3678 10.1923 26.109 9.79204 25.8432 9.60369C25.5844 9.41135 25.2921 9.40918 24.9665 9.59718C24.9665 9.59718 24.9076 9.63118 24.7898 9.69918C24.7344 9.73118 24.681 9.76664 24.6296 9.80557L26.0323 13.2912C26.1501 13.2232 26.2644 13.1572 26.3752 13.0932ZM23.2978 9.56293C23.2978 9.56293 23.7075 9.31254 24.5269 8.81175C24.8595 8.61975 25.167 8.4884 25.4495 8.41768C25.7349 8.33603 26.0058 8.34128 26.2622 8.43341C26.7612 8.62568 27.2198 9.22 27.638 10.2164C28.2208 11.6258 28.1585 12.6779 27.4511 13.3727C27.2279 13.594 26.9638 13.7926 26.659 13.9686C26.3541 14.1446 26.0903 14.2877 25.8675 14.3978C25.6448 14.508 25.4745 14.597 25.3567 14.665L23.2978 9.56293Z" fill="#DC831B"/>
</svg>
