<svg width="16" height="15" viewBox="0 0 16 15" fill="none" xmlns="http://www.w3.org/2000/svg">
<path d="M1.11111 14.7773H14.4444C14.7391 14.7773 15.0217 14.672 15.2301 14.4845C15.4385 14.2969 15.5556 14.0426 15.5556 13.7773C15.5556 13.5121 15.4385 13.2578 15.2301 13.0702C15.0217 12.8827 14.7391 12.7773 14.4444 12.7773H1.11111C0.816426 12.7773 0.533811 12.8827 0.325437 13.0702C0.117063 13.2578 0 13.5121 0 13.7773C0 14.0426 0.117063 14.2969 0.325437 14.4845C0.533811 14.672 0.816426 14.7773 1.11111 14.7773Z" fill="#666456"/>
<path d="M1.11111 8.38867H14.4444C14.7391 8.38867 15.0217 8.28331 15.2301 8.09578C15.4385 7.90824 15.5556 7.65389 15.5556 7.38867C15.5556 7.12346 15.4385 6.8691 15.2301 6.68157C15.0217 6.49403 14.7391 6.38867 14.4444 6.38867H1.11111C0.816426 6.38867 0.533811 6.49403 0.325437 6.68157C0.117063 6.8691 0 7.12346 0 7.38867C0 7.65389 0.117063 7.90824 0.325437 8.09578C0.533811 8.28331 0.816426 8.38867 1.11111 8.38867Z" fill="#666456"/>
<path d="M1.11111 2H14.4444C14.7391 2 15.0217 1.89464 15.2301 1.70711C15.4385 1.51957 15.5556 1.26522 15.5556 1C15.5556 0.734784 15.4385 0.48043 15.2301 0.292893C15.0217 0.105357 14.7391 0 14.4444 0H1.11111C0.816426 0 0.533811 0.105357 0.325437 0.292893C0.117063 0.48043 0 0.734784 0 1C0 1.26522 0.117063 1.51957 0.325437 1.70711C0.533811 1.89464 0.816426 2 1.11111 2Z" fill="#666456"/>
</svg>
