<svg width="24" height="22" viewBox="0 0 24 22" fill="none" xmlns="http://www.w3.org/2000/svg">
<path d="M19.3825 1H4.61745C2.62268 1 1 2.62268 1 4.61745V13.8811C1 15.8758 2.62268 17.4985 4.61745 17.4985H6.82483V19.5081C6.82483 20.0499 7.12752 20.5335 7.61477 20.7697C7.81188 20.865 8.02154 20.9122 8.22973 20.9122C8.53758 20.9122 8.84101 20.8096 9.09497 20.6103L13.0491 17.4985H19.3825C21.3773 17.4985 23 15.8758 23 13.8811V4.61745C23 2.62268 21.3773 1 19.3825 1ZM21.6711 13.8811C21.6711 15.1428 20.6442 16.1697 19.3825 16.1697H12.8195C12.6703 16.1697 12.5256 16.2199 12.4083 16.3114L8.27255 19.5656C8.26074 19.5745 8.23711 19.5937 8.19503 19.5738C8.15295 19.5538 8.15295 19.5221 8.15295 19.5073V16.8334C8.15295 16.4664 7.85544 16.1689 7.48852 16.1689H4.61745C3.35577 16.1689 2.32886 15.142 2.32886 13.8803V4.61745C2.32886 3.35577 3.35577 2.32886 4.61745 2.32886H19.3825C20.6442 2.32886 21.6711 3.35577 21.6711 4.61745V13.8811Z" fill="#666456" stroke="#666456" stroke-width="0.4"/>
<path d="M17.2349 7.02127H6.76502C6.3981 7.02127 6.10059 7.31879 6.10059 7.6857C6.10059 8.05261 6.3981 8.35013 6.76502 8.35013H17.2357C17.6026 8.35013 17.9001 8.05261 17.9001 7.6857C17.9001 7.31879 17.6019 7.02127 17.2349 7.02127Z" fill="#666456" stroke="#666456" stroke-width="0.4"/>
<path d="M10.443 10.1485H6.76502C6.3981 10.1485 6.10059 10.446 6.10059 10.8129C6.10059 11.1798 6.3981 11.4773 6.76502 11.4773H10.443C10.8099 11.4773 11.1074 11.1798 11.1074 10.8129C11.1074 10.446 10.8099 10.1485 10.443 10.1485Z" fill="#666456" stroke="#666456" stroke-width="0.4"/>
</svg>
