<svg width="20" height="25" viewBox="0 0 20 25" fill="none" xmlns="http://www.w3.org/2000/svg">
<path d="M7.81114 23.9885C7.74391 23.9789 7.48459 23.9357 7.23487 23.8925C6.6538 23.7916 5.64533 23.4651 5.12189 23.2009C1.37134 21.3137 -0.357467 17.1453 0.967951 13.1787C1.73151 10.8928 3.56116 9.00552 5.84222 8.15553C6.88431 7.76655 7.81594 7.61768 8.96367 7.65609C9.83768 7.68491 10.3467 7.76174 11.0767 7.97784C11.4704 8.0979 12.4837 8.50609 12.5557 8.57332C12.5846 8.60694 11.9315 9.8075 11.8738 9.83151C11.8402 9.84591 11.6577 9.77868 11.4608 9.68744C10.3227 9.1688 8.87243 8.98151 7.59504 9.19761C5.19872 9.601 3.12415 11.3682 2.3606 13.6589C2.07727 14.5089 2.02444 14.8643 2.02444 15.8535C2.02444 16.8476 2.08207 17.2125 2.3702 18.0337C2.5815 18.6388 2.77839 19.0278 3.15777 19.6041C3.76765 20.5117 4.65607 21.2992 5.65013 21.8035C6.70662 22.3413 7.5182 22.5382 8.67554 22.543C9.8665 22.5478 10.7645 22.3365 11.797 21.8035C13.1176 21.1216 14.1645 20.0411 14.7936 18.7156C15.0289 18.221 15.1586 17.8512 15.3122 17.2221C15.4179 16.7899 15.4179 16.7755 15.4323 11.2578L15.4515 5.72079L14.4526 5.71599C13.9052 5.71119 13.4394 5.71119 13.4201 5.71599C13.3337 5.7304 13.4105 5.56232 13.8283 4.83718C14.0781 4.40978 14.7071 3.32448 15.2306 2.41685C15.754 1.50923 16.1958 0.784094 16.2151 0.808105C16.2343 0.827314 16.4648 1.2259 16.7289 1.68691C16.993 2.14793 17.6125 3.22363 18.1023 4.07843C18.597 4.92842 19.0003 5.64876 19.0003 5.67277C19.0003 5.70158 18.9859 5.71599 18.9667 5.71599C18.9427 5.71119 18.4817 5.71119 17.9343 5.71599L16.9354 5.72079V10.8736C16.9354 16.1801 16.921 16.6651 16.7385 17.5535C16.1622 20.3244 14.054 22.6919 11.3552 23.5899C10.4284 23.9021 9.98655 23.9741 8.89164 23.9933C8.36339 24.0029 7.87837 24.0029 7.81114 23.9885Z" fill="#666456" stroke="#666456" stroke-width="0.3"/>
<path d="M6.06552 11.8726C6.05691 11.9007 5.97949 12.1017 5.89346 12.3227C5.81174 12.5397 5.74292 12.7326 5.74292 12.7486C5.74292 12.7647 6.14294 12.7888 6.63758 12.7969C7.61828 12.821 7.79033 12.8531 8.07851 13.0741C8.16884 13.1424 8.27637 13.267 8.32368 13.3554C8.48713 13.6528 8.54735 13.6407 7.24837 13.6247L6.09132 13.6126L5.91497 14.0707C5.82034 14.3199 5.74292 14.5409 5.74292 14.561C5.74292 14.5811 6.32359 14.5971 7.07201 14.5971H8.40541L8.35809 14.7257C8.27637 14.9387 7.90646 15.2602 7.62688 15.3526C7.33869 15.4531 6.80533 15.5214 6.31499 15.5214C5.98809 15.5214 5.95798 15.5294 5.95368 15.6018C5.95368 15.646 5.95368 15.8067 5.95368 15.9634C5.95368 16.1161 5.95368 16.2688 5.95368 16.301C5.95798 16.3331 6.0268 16.3653 6.13434 16.3814C6.42252 16.4256 6.48274 16.4939 8.45272 18.9452L9.24846 19.9377L10.0356 19.9417H10.8227L10.7152 19.8091C10.2937 19.2867 8.82693 17.4784 8.41831 16.9761C8.13873 16.6385 7.91506 16.3452 7.91506 16.3211C7.91506 16.301 8.06991 16.2206 8.25486 16.1443C9.0549 15.8188 9.56245 15.3647 9.76461 14.7981L9.83343 14.6012L10.5087 14.5891L11.1797 14.577L11.3604 14.1029C11.4593 13.8457 11.5281 13.6327 11.5109 13.6287C11.498 13.6287 11.1754 13.6287 10.7969 13.6327C9.97968 13.6407 9.88075 13.6247 9.84634 13.476C9.83343 13.4197 9.78612 13.271 9.7388 13.1505C9.69149 13.0299 9.63987 12.8973 9.62697 12.8571C9.60546 12.7928 9.66138 12.7888 10.384 12.7888H11.1625L11.2098 12.6763C11.2356 12.616 11.3217 12.399 11.3991 12.1941L11.541 11.8244H8.81403C6.66769 11.8244 6.07842 11.8364 6.06552 11.8726Z" fill="#666456" stroke="#666456" stroke-width="0.3"/>
</svg>
