<svg width="28" height="26" viewBox="0 0 28 26" fill="none" xmlns="http://www.w3.org/2000/svg">
<path d="M23.4629 1.13948C23.3583 1.24408 23.3235 2.33657 23.3235 5.31188V9.35643L22.7307 9.3913L22.1264 9.42616L21.3593 10.6465L20.5806 11.8668L19.9181 11.9017L19.2557 11.9366V11.309C19.2557 10.9371 19.1975 10.6233 19.1046 10.5535C19.0232 10.4838 18.5699 10.4141 18.0934 10.3908L17.2218 10.3559L17.1636 8.38016L17.1055 6.40437L10.6203 6.3695L4.14669 6.34626L4.01885 6.66006C3.96073 6.83439 3.91425 7.72931 3.92587 8.65909L3.93749 10.3559L3.08906 10.3908C2.62417 10.4141 2.1709 10.4838 2.08955 10.5535C1.97332 10.6465 1.93846 11.1579 1.93846 12.5758V14.4702L1.52006 14.5051C0.764608 14.5632 0.77623 14.6911 1.69439 17.2015C2.14766 18.4567 2.51957 19.5143 2.51957 19.5375C2.51957 19.5724 2.44984 19.5957 2.3801 19.5957C2.29875 19.5957 1.9617 19.7235 1.62466 19.8746C0.904075 20.2116 0.729741 20.5719 1.1249 20.8974C1.36897 21.0949 1.39221 21.0949 1.8571 20.8509C2.21739 20.6533 2.55444 20.5952 3.1588 20.5836C3.891 20.5836 4.06534 20.63 4.84403 21.0484C5.66921 21.4901 5.76219 21.5133 6.7617 21.5133C7.76122 21.5133 7.8542 21.4901 8.78398 21.0136C10.1089 20.3511 10.5971 20.3511 11.9452 21.0136C12.875 21.4785 12.968 21.5017 13.9675 21.5017C14.967 21.5017 15.06 21.4785 15.9898 21.0136C17.338 20.3511 17.8261 20.3511 19.1511 21.0136C20.0808 21.4901 20.1738 21.5133 21.1733 21.5133C22.1728 21.5133 22.2658 21.4901 23.091 21.0484C23.8697 20.63 24.044 20.5836 24.7762 20.5836C25.3806 20.5952 25.7176 20.6533 26.0779 20.8509C26.5428 21.0949 26.5661 21.0949 26.8101 20.8974C27.3448 20.4557 26.7172 19.863 25.4155 19.584C25.1017 19.5143 24.8344 19.4329 24.8344 19.3981C24.8344 19.3632 25.3457 18.3521 25.9733 17.1434C27.2169 14.7375 27.2402 14.5748 26.415 14.5051L25.9966 14.4702V12.0528C25.9966 10.3327 25.9617 9.61212 25.8571 9.50752C25.7758 9.42616 25.4038 9.36805 24.9854 9.36805H24.2532V5.3235C24.2532 1.1511 24.2416 1.00001 23.7883 1.00001C23.6837 1.00001 23.5443 1.05812 23.4629 1.13948ZM8.07502 8.81018L8.04016 10.3559L6.50601 10.3908L4.96025 10.4257V8.84505V7.27604H6.52926H8.10989L8.07502 8.81018ZM12.1428 8.81018L12.108 10.3559L10.5738 10.3908L9.02805 10.4257V8.84505V7.27604H10.5971H12.1777L12.1428 8.81018ZM16.2339 8.84505V10.4257L14.6997 10.3908L13.154 10.3559L13.1191 8.81018L13.0842 7.27604H14.6649H16.2339V8.84505ZM25.0087 11.1114V11.8668L23.4164 11.9017C22.5331 11.9133 21.8126 11.9017 21.8126 11.8668C21.8126 11.832 22.0334 11.4601 22.2891 11.0417L22.7656 10.2862L23.8929 10.3211L25.0087 10.3559V11.1114ZM6.00626 12.9128V14.4935L4.47212 14.4586L2.92635 14.4237L2.89148 13.0407C2.87986 12.2736 2.89148 11.5763 2.91473 11.4949C2.96122 11.3787 3.35638 11.3438 4.49536 11.3438H6.00626V12.9128ZM10.0741 12.9128V14.4819H8.56316H7.05226V12.9128V11.3438H8.56316H10.0741V12.9128ZM14.1419 12.9128V14.4819H12.631H11.1201V12.9128V11.3438H12.631H14.1419V12.9128ZM18.2097 12.9128V14.4819H16.6988H15.1879V12.9128V11.3438H16.6988H18.2097V12.9128ZM25.0087 13.6683V14.4237L22.138 14.4586L19.2557 14.4819V13.6683V12.8547L22.138 12.878L25.0087 12.9128V13.6683ZM25.6479 15.4814C25.6479 15.5162 25.183 16.4693 24.6135 17.5966L23.5675 19.6538L22.6959 20.107C21.4755 20.7346 20.8479 20.723 19.5113 20.0838C17.9423 19.3167 17.0823 19.3283 15.4435 20.1419C14.2813 20.7114 13.6537 20.7114 12.4915 20.1419C10.8527 19.3283 9.9927 19.3167 8.42369 20.0838C7.07551 20.7346 6.48277 20.7346 5.16945 20.0838C4.63483 19.8165 4.08858 19.5957 3.94911 19.5957C3.80965 19.5957 3.65856 19.5375 3.62369 19.4794C3.51909 19.3051 2.1709 15.6208 2.1709 15.5046C2.1709 15.4581 7.44742 15.4116 13.9094 15.4116C20.3714 15.4116 25.6479 15.4465 25.6479 15.4814Z" fill="#666456" stroke="#666456" stroke-width="0.3"/>
<path d="M4.84399 17.155C4.55343 17.4455 4.54181 17.8756 4.82074 18.1196C5.27401 18.5264 6.00622 18.2242 6.00622 17.6431C6.00622 17.3177 5.61106 16.9225 5.30888 16.9225C5.18103 16.9225 4.97183 17.0271 4.84399 17.155Z" fill="#666456" stroke="#666456" stroke-width="0.3"/>
<path d="M7.42413 17.1085C7.12195 17.3177 7.07546 17.8639 7.3544 18.1312C7.62171 18.4102 8.16796 18.3637 8.37716 18.0615C8.62122 17.7128 8.6096 17.4339 8.33067 17.155C8.05173 16.876 7.7728 16.8644 7.42413 17.1085Z" fill="#666456" stroke="#666456" stroke-width="0.3"/>
<path d="M9.98094 17.1085C9.67876 17.3177 9.63227 17.8639 9.9112 18.1312C10.1785 18.4102 10.7248 18.3637 10.934 18.0615C11.1897 17.7012 11.1664 17.5385 10.8294 17.2131C10.5039 16.876 10.3412 16.8528 9.98094 17.1085Z" fill="#666456" stroke="#666456" stroke-width="0.3"/>
<path d="M2.27543 23.1172C1.19456 23.431 0.683175 23.9075 1.0086 24.3027C1.20618 24.5351 1.46187 24.5235 2.11272 24.233C2.9379 23.8727 3.76308 23.9656 4.91369 24.5468C5.75049 24.9652 5.87833 25 6.80812 25C7.74952 25 7.86574 24.9652 8.79553 24.5003C10.1205 23.8378 10.6086 23.8378 11.9452 24.5003C12.8749 24.9652 12.9679 24.9884 13.9674 24.9884C14.967 24.9884 15.0599 24.9652 15.9897 24.5003C17.3263 23.8378 17.8144 23.8378 19.1394 24.5003C20.0691 24.9652 20.1854 25 21.1268 25C22.0565 25 22.1844 24.9652 23.0212 24.5468C24.1834 23.954 24.9854 23.8727 25.8454 24.2446C26.4963 24.5235 26.7752 24.5235 26.9612 24.233C27.1587 23.9192 26.9612 23.6635 26.2638 23.338C25.7292 23.094 25.4154 23.0359 24.7064 23.0242C23.9045 23.0242 23.7534 23.0707 22.8004 23.5356C21.4289 24.2213 20.8711 24.233 19.5113 23.5705C17.919 22.7918 17.1287 22.8034 15.4435 23.6286C14.2348 24.2213 13.6653 24.2097 12.3171 23.5356C11.3873 23.0824 11.213 23.0359 10.4226 23.0359C9.63233 23.0242 9.458 23.0707 8.48173 23.5356C7.02894 24.2213 6.51756 24.233 5.181 23.5589C4.06526 23.0126 3.1471 22.8732 2.27543 23.1172Z" fill="#666456" stroke="#666456" stroke-width="0.3"/>
</svg>
