<svg width="16" height="22" viewBox="0 0 16 22" fill="none" xmlns="http://www.w3.org/2000/svg">
<path fill-rule="evenodd" clip-rule="evenodd" d="M7.75049 7.5C7.99789 7.5 8.22929 7.62197 8.36919 7.82601L9.62909 9.6644L11.7668 10.2945C12.0041 10.3645 12.1916 10.5469 12.2681 10.7822C12.3445 11.0174 12.3 11.2752 12.1492 11.4713L10.7901 13.2376L10.8514 15.4654C10.8582 15.7127 10.7426 15.9474 10.5425 16.0928C10.3424 16.2382 10.0835 16.2756 9.85039 16.1927L7.75049 15.446L5.65067 16.1927C5.41761 16.2756 5.15866 16.2382 4.95854 16.0928C4.75842 15.9474 4.64287 15.7127 4.64967 15.4654L4.71094 13.2376L3.35188 11.4713C3.20104 11.2752 3.15657 11.0174 3.23301 10.7822C3.30944 10.5469 3.49697 10.3645 3.73423 10.2945L5.87199 9.6644L7.13189 7.82601C7.27169 7.62197 7.50319 7.5 7.75049 7.5ZM7.75049 9.5767L6.95849 10.7323C6.86099 10.8746 6.71739 10.979 6.55189 11.0278L5.20805 11.4239L6.06239 12.5343C6.16759 12.671 6.22249 12.8398 6.21769 13.0123L6.17919 14.4128L7.49919 13.9433C7.66179 13.8856 7.83929 13.8856 8.00179 13.9433L9.32189 14.4128L9.28339 13.0123C9.27859 12.8398 9.33349 12.671 9.43869 12.5343L10.293 11.4239L8.94919 11.0278C8.78369 10.979 8.64009 10.8746 8.54259 10.7323L7.75049 9.5767Z" fill="#666456"/>
<path fill-rule="evenodd" clip-rule="evenodd" d="M7.3141 0.139702C7.5748 -0.0465675 7.9252 -0.0465675 8.1859 0.139702L15.1859 5.1397C15.383 5.28048 15.5 5.50779 15.5 5.75V20.75C15.5 21.1642 15.1642 21.5 14.75 21.5H0.75C0.33579 21.5 0 21.1642 0 20.75V11.75C0 11.3358 0.33579 11 0.75 11C1.16421 11 1.5 11.3358 1.5 11.75V20H14V6.13596L7.75 1.67168L1.5 6.13596V7.75C1.5 8.16421 1.16421 8.5 0.75 8.5C0.33579 8.5 0 8.16421 0 7.75V5.75C0 5.50779 0.11697 5.28048 0.31407 5.1397L7.3141 0.139702Z" fill="#666456"/>
</svg>
