<svg width="27" height="19" viewBox="0 0 27 19" fill="none" xmlns="http://www.w3.org/2000/svg">
<path d="M1 8.22677V15.4535H2.13976H3.27951L3.29879 15.2525C3.33182 14.8698 3.36761 14.6496 3.42267 14.4844C3.45296 14.3908 3.47773 14.3027 3.47773 14.2862C3.47773 14.2366 3.72 13.7824 3.83563 13.6145C4.00632 13.3639 4.30915 13.0694 4.60372 12.8684C4.80194 12.7335 5.20939 12.5628 5.50397 12.4912C6.57765 12.2297 7.69263 12.6234 8.39741 13.5126C8.49377 13.6337 8.57085 13.7466 8.57085 13.7631C8.57085 13.7796 8.58737 13.8099 8.60939 13.8264C8.66721 13.8732 8.86543 14.366 8.91223 14.5725C8.93425 14.6716 8.96729 14.8809 8.98381 15.0405C9.00032 15.2002 9.02235 15.3571 9.03061 15.3902L9.04437 15.4535H13.251C16.1224 15.4535 17.4659 15.4452 17.4769 15.426C17.4879 15.4094 17.5072 15.269 17.521 15.1149C17.5595 14.7074 17.5926 14.5312 17.6862 14.2835C17.8458 13.8622 18.0606 13.5291 18.3744 13.2208C18.5479 13.0501 18.881 12.8051 19.0324 12.739C19.0709 12.7225 19.17 12.6757 19.2526 12.6371C19.338 12.5958 19.5417 12.5298 19.7069 12.4912C20.4502 12.3068 21.2568 12.4499 21.9286 12.8849C22.1461 13.0253 22.5205 13.3805 22.6581 13.5814C22.9637 14.0192 23.1454 14.5175 23.1895 15.046C23.206 15.2332 23.2253 15.3984 23.2308 15.4149C23.2445 15.4562 24.7587 15.4645 24.99 15.426C25.4828 15.3379 25.7911 15.1286 26.0416 14.6992C26.1517 14.512 26.2288 14.2449 26.2756 13.9008C26.372 13.1547 26.0251 12.4114 25.4222 12.0673L25.257 11.9709L25.2543 11.7507C25.2515 11.423 25.2047 10.8504 25.1579 10.5393C25.1331 10.3879 25.0946 10.1401 25.0698 9.98871C24.9046 8.9343 24.4614 7.7092 23.9108 6.80345C23.7373 6.51438 23.674 6.42078 23.4565 6.13446C22.8756 5.36636 22.0442 4.68086 21.1935 4.27066C21.1027 4.22936 21.0063 4.17981 20.9788 4.16329C20.8356 4.08345 20.1721 3.86871 19.7482 3.7641C19.6518 3.74207 19.3462 3.69252 19.0737 3.65398C18.6002 3.59066 18.5121 3.5879 17.0172 3.5879H15.4534V2.29397V1.00005H8.22672H1V8.22677ZM14.4073 8.21851V14.4211L12.1663 14.4128L9.92534 14.4073L9.89231 14.2614C9.84551 14.0605 9.65004 13.5677 9.55093 13.4025C9.30316 12.9868 8.92324 12.5105 8.69749 12.3371C8.63692 12.2875 8.57911 12.2379 8.57085 12.2297C8.53231 12.1746 8.13862 11.9296 7.89085 11.803C7.03741 11.3652 6.03806 11.2661 5.11304 11.5304C4.79644 11.6213 4.38073 11.792 4.22656 11.8993C4.18526 11.9241 4.06138 12.0094 3.9485 12.0838C3.71449 12.2379 3.20518 12.728 3.04826 12.9455C2.79223 13.3034 2.60502 13.6723 2.47287 14.0852L2.36826 14.4073H2.19482H2.01862V8.213V2.01867H8.21296H14.4073V8.21851ZM19.0324 4.6726C19.2058 4.69738 19.3875 4.73041 19.4316 4.74418C19.4784 4.7607 19.616 4.79649 19.7427 4.82677C20.7778 5.07179 21.8377 5.75454 22.5343 6.6245C23.1647 7.41462 23.6024 8.30385 23.8915 9.38305C24.1117 10.2172 24.2521 11.4533 24.2301 12.3783L24.2219 12.7858L24.3182 12.8078C24.3705 12.8216 24.5082 12.8491 24.6211 12.8656C24.9266 12.9152 25.0863 13.0308 25.1992 13.2869C25.268 13.441 25.2845 13.8182 25.2295 14.0109C25.1909 14.1541 25.0533 14.3468 24.9624 14.3798C24.9266 14.3963 24.7229 14.4101 24.5109 14.4128L24.131 14.4211L24.1117 14.3137C24.1035 14.2532 24.0787 14.1651 24.0567 14.121C24.0347 14.0742 23.9906 13.9586 23.9603 13.8622C23.7456 13.2345 23.2143 12.5435 22.6086 12.1086C22.1874 11.8057 21.5184 11.5222 21.0283 11.4368C20.0428 11.2689 18.9333 11.5166 18.1404 12.081C18.0991 12.1113 17.9615 12.2242 17.8376 12.3288C17.6449 12.494 17.554 12.5876 17.287 12.8932C17.2209 12.9675 17.0034 13.3171 16.9181 13.4851C16.8024 13.7136 16.6428 14.132 16.6207 14.2669C16.6097 14.3303 16.5932 14.3881 16.5794 14.3936C16.5684 14.4018 16.3096 14.4101 16.0068 14.4156L15.4534 14.4211V9.51244V4.60102L17.086 4.61479C18.4102 4.6258 18.7764 4.63681 19.0324 4.6726Z" fill="#91B243" stroke="#91B243" stroke-width="0.2"/>
<path d="M16.4719 7.45592V9.25916H19.4314C21.0585 9.25916 22.391 9.2509 22.391 9.24264C22.391 9.23438 22.3772 9.20134 22.3607 9.16831C22.3414 9.13802 22.2946 9.01689 22.2533 8.90401C21.8982 7.92393 21.543 7.31551 21.0392 6.81171C20.4418 6.2143 19.759 5.87567 18.8423 5.72426C18.4459 5.65818 18.3633 5.65268 17.4465 5.65268H16.4719V7.45592ZM18.7404 6.74013C19.1809 6.81721 19.6324 7.00167 19.9738 7.23843C20.2243 7.41462 20.6676 7.91017 20.7914 8.14968L20.8245 8.213L19.1699 8.21851L17.5181 8.22677V7.4449V6.66304L18.0081 6.67956C18.2779 6.69057 18.6083 6.7181 18.7404 6.74013Z" fill="#91B243" stroke="#91B243" stroke-width="0.2"/>
<path d="M5.84548 13.7718C5.63349 13.7994 5.25908 13.926 5.0471 14.0416C4.01195 14.6115 3.56046 15.8779 4.0092 16.9516C4.14135 17.2654 4.279 17.4637 4.5488 17.7335C4.83236 18.0143 5.07463 18.1574 5.49034 18.2896C5.75738 18.3777 5.80143 18.3832 6.16208 18.3832C6.50896 18.3832 6.57228 18.3749 6.79528 18.3033C7.44775 18.0969 7.9075 17.7197 8.22135 17.1278C8.38928 16.8139 8.50766 16.2606 8.47738 15.9495C8.40305 15.2254 8.0892 14.6418 7.55236 14.2288C7.32936 14.0582 7.1807 13.9811 6.89989 13.8847C6.51722 13.7553 6.21714 13.7223 5.84548 13.7718ZM6.57503 14.8565C6.8586 14.9446 7.13665 15.1841 7.29908 15.4787C7.41471 15.6907 7.45325 15.8807 7.43673 16.1725C7.42297 16.3845 7.40645 16.445 7.31835 16.6267C7.08159 17.1058 6.69066 17.3508 6.16483 17.3508C5.74637 17.3508 5.47657 17.2379 5.21228 16.9461C5.04985 16.7699 4.99204 16.6653 4.9122 16.4037C4.83511 16.156 4.83787 15.977 4.92596 15.7017C5.05536 15.286 5.39949 14.9446 5.79042 14.84C6.0024 14.7822 6.3603 14.7905 6.57503 14.8565Z" fill="#91B243" stroke="#91B243" stroke-width="0.2"/>
<path d="M20.0509 13.7718C19.4342 13.8544 18.8147 14.2316 18.4651 14.7354C18.1733 15.1594 18.0549 15.5503 18.0577 16.0844C18.0604 16.4946 18.1072 16.7368 18.2476 17.0369C18.578 17.7445 19.1616 18.1932 19.982 18.3694C20.1252 18.4024 20.5822 18.4024 20.7254 18.3722C21.265 18.2538 21.6476 18.0528 22.0193 17.6894C22.3139 17.4031 22.5754 16.8993 22.636 16.5056C22.7323 15.8889 22.6139 15.3025 22.3028 14.818C21.8211 14.0747 20.9208 13.6562 20.0509 13.7718ZM20.6841 14.8345C21.053 14.9171 21.4054 15.2282 21.554 15.5971C21.6724 15.8917 21.6807 16.2083 21.5788 16.4891C21.4439 16.8525 21.1686 17.1471 20.841 17.2737C20.6373 17.3535 20.2298 17.37 19.9958 17.3095C19.6737 17.2269 19.3764 16.9791 19.2112 16.657C18.7735 15.8118 19.3819 14.8015 20.3344 14.7932C20.4225 14.7905 20.5794 14.8097 20.6841 14.8345Z" fill="#91B243" stroke="#91B243" stroke-width="0.2"/>
</svg>
