<svg width="20" height="20" viewBox="0 0 20 20" fill="none" xmlns="http://www.w3.org/2000/svg">
<path d="M10 0C4.48523 0 0 4.48522 0 10V12.7273C1.80736e-05 12.9081 0.0718581 13.0815 0.19972 13.2094C0.327582 13.3372 0.500994 13.4091 0.681818 13.4091L3.23864 12.4091C3.31722 12.7181 3.47453 13.0015 3.69318 13.2259C3.72575 13.2578 3.76144 13.2863 3.79972 13.3111L7.62074 15.9105L7.67045 15.946V15.9389C7.94456 16.1491 8.27979 16.2727 8.63636 16.2727C8.9138 16.2727 9.17494 16.2017 9.40341 16.0739C9.70339 16.2206 10.0145 16.2727 10.2273 16.2727C11.0143 16.2727 12 15.9385 13.0753 15.527C14.1446 15.1177 15.1916 15.6317 15.8665 15.1705C15.8702 15.168 15.8769 15.1659 15.8807 15.1634V15.1562C16.2557 14.907 16.5909 13.4334 16.5909 12.9631C16.5909 12.7719 16.5712 13.2153 16.5 13.0398H17.9844C17.0036 16.5418 13.5629 18.6364 10 18.6364C7.84017 18.6364 5.86138 17.8779 4.34659 16.5909H4.54545C4.6358 16.5922 4.72551 16.5755 4.80935 16.5418C4.89319 16.5081 4.9695 16.4581 5.03384 16.3947C5.09819 16.3312 5.14928 16.2556 5.18415 16.1723C5.21902 16.0889 5.23698 15.9994 5.23698 15.9091C5.23698 15.8187 5.21902 15.7293 5.18415 15.6459C5.14928 15.5626 5.09819 15.487 5.03384 15.4235C4.9695 15.3601 4.89319 15.3101 4.80935 15.2764C4.72551 15.2427 4.6358 15.226 4.54545 15.2273H2.72727C2.70361 15.226 2.67991 15.226 2.65625 15.2273C2.488 15.2449 2.33232 15.3245 2.21944 15.4505C2.10656 15.5765 2.04455 15.7399 2.04545 15.9091V17.7273C2.04418 17.8176 2.06087 17.9073 2.09456 17.9912C2.12825 18.075 2.17827 18.1513 2.24171 18.2157C2.30515 18.28 2.38074 18.3311 2.4641 18.366C2.54746 18.4008 2.63691 18.4188 2.72727 18.4188C2.81763 18.4188 2.90709 18.4008 2.99044 18.366C3.0738 18.3311 3.1494 18.28 3.21284 18.2157C3.27628 18.1513 3.32629 18.075 3.35999 17.9912C3.39368 17.9073 3.41037 17.8176 3.40909 17.7273V17.5852C5.17681 19.1079 7.49497 20 10 20C14.4468 20 18.1782 17.0606 19.4744 13.0398C19.5162 12.9627 19.5427 12.8783 19.5526 12.7912C19.5526 12.7888 19.5526 12.7865 19.5526 12.7841C19.8134 11.8933 20 10.9741 20 10V6.81818C20.0013 6.72783 19.9846 6.63813 19.9509 6.55429C19.9172 6.47045 19.8672 6.39414 19.8037 6.32979C19.7403 6.26545 19.6647 6.21436 19.5814 6.17948C19.498 6.14461 19.4085 6.12665 19.3182 6.12665C19.2278 6.12665 19.1384 6.14461 19.055 6.17948C18.9717 6.21436 18.8961 6.26545 18.8326 6.32979C18.7692 6.39414 18.7192 6.47045 18.6855 6.55429C18.6518 6.63813 18.6351 6.72783 18.6364 6.81818V10C18.6364 10.7097 18.5271 11.3859 18.3665 12.0455H15.3906L11.1861 7.4929C11.0996 7.399 10.9886 7.33125 10.8655 7.29735C10.7425 7.26345 10.6124 7.26476 10.4901 7.30114C10.4901 7.30114 9.78254 7.50819 9.0696 7.72017C8.71313 7.82616 8.35607 7.92968 8.08239 8.01136C7.94555 8.0522 7.83256 8.08556 7.74858 8.1108C7.6646 8.13603 7.69504 8.12689 7.57812 8.16761C7.55526 8.17557 7.52788 8.18182 7.5 8.18182C7.2413 8.18182 7.1798 8.11673 7.13068 8.06108C7.08156 8.00543 7.04545 7.90288 7.04545 7.79119C7.04545 7.77353 7.14464 7.57971 7.15909 7.56392V7.55682L10.6889 5.75994L14.2969 7.43608C14.3859 7.47759 14.4828 7.4994 14.581 7.5H17.0455C17.1358 7.50128 17.2255 7.48459 17.3093 7.45089C17.3932 7.4172 17.4695 7.36718 17.5338 7.30375C17.5982 7.24031 17.6493 7.16471 17.6842 7.08135C17.719 6.998 17.737 6.90854 17.737 6.81818C17.737 6.72782 17.719 6.63837 17.6842 6.55501C17.6493 6.47165 17.5982 6.39606 17.5338 6.33262C17.4695 6.26918 17.3932 6.21916 17.3093 6.18547C17.2255 6.15178 17.1358 6.13509 17.0455 6.13636H14.7372L10.973 4.3821C10.8689 4.33296 10.7541 4.31097 10.6392 4.31818C10.5453 4.323 10.4534 4.34718 10.3693 4.3892L6.93892 6.13636C6.91762 6.13537 6.89629 6.13537 6.875 6.13636H2.27273C3.68752 3.30376 6.61153 1.36364 10 1.36364C12.1595 1.36364 14.1379 2.12407 15.6534 3.40909H15.4545C15.3642 3.40781 15.2745 3.4245 15.1907 3.4582C15.1068 3.49189 15.0305 3.54191 14.9662 3.60535C14.9018 3.66878 14.8507 3.74438 14.8158 3.82774C14.781 3.91109 14.763 4.00055 14.763 4.09091C14.763 4.18127 14.781 4.27072 14.8158 4.35408C14.8507 4.43744 14.9018 4.51303 14.9662 4.57647C15.0305 4.63991 15.1068 4.68993 15.1907 4.72362C15.2745 4.75731 15.3642 4.77401 15.4545 4.77273H17.2727C17.4536 4.77271 17.627 4.70087 17.7548 4.57301C17.8827 4.44515 17.9545 4.27173 17.9545 4.09091V2.27273C17.9564 2.1814 17.94 2.09063 17.9061 2.00579C17.8723 1.92095 17.8217 1.84379 17.7574 1.77887C17.6932 1.71395 17.6165 1.6626 17.532 1.62787C17.4476 1.59314 17.357 1.57574 17.2656 1.5767C17.1755 1.57763 17.0864 1.59643 17.0036 1.632C16.9207 1.66757 16.8458 1.71921 16.783 1.78394C16.7203 1.84867 16.671 1.92519 16.638 2.00909C16.6051 2.09299 16.589 2.1826 16.5909 2.27273V2.42188C14.8231 0.898854 12.505 0 10 0ZM1.73295 7.5H5.74574C5.7296 7.59904 5.68182 7.68937 5.68182 7.79119C5.68182 8.18158 5.79602 8.60966 6.10795 8.96307C6.41988 9.31647 6.93018 9.54545 7.5 9.54545C7.68168 9.54545 7.8611 9.51041 8.02557 9.45312C7.92459 9.4883 8.05682 9.44238 8.1392 9.41761C8.22159 9.39285 8.33661 9.35889 8.47301 9.31818C8.74582 9.23676 9.10399 9.13291 9.46023 9.02699C9.96853 8.87585 10.2215 8.8021 10.4688 8.72869L15.0142 13.6577L15.0284 13.6719C15.1355 13.7966 15.2054 13.8862 15.2202 13.9134C15.2359 13.9422 15.2273 13.9097 15.2273 13.9631C15.2273 13.9703 15.2322 13.9748 15.2344 13.9773C15.2191 13.9808 15.1911 13.9862 15.1278 14.027C15.1231 14.0293 15.1183 14.0317 15.1136 14.0341C14.6399 14.3597 13.5934 13.8698 12.5852 14.2557C11.577 14.6415 10.4992 14.9091 10.2273 14.9091C10.2167 14.9091 10.2147 14.9089 10.206 14.9091C10.2168 14.835 10.2273 14.7586 10.2273 14.6818C10.2273 14.3423 10.1216 14.0164 9.92898 13.7514C9.89615 13.7067 9.85799 13.6662 9.81534 13.6307L6.10085 10.5057C6.08713 10.4933 6.07292 10.4814 6.05824 10.4702C5.7542 10.2541 5.38247 10.1364 5 10.1364C4.33336 10.1364 3.74689 10.5033 3.4304 11.0455L1.36364 12.0455V10C1.36364 9.12995 1.49488 8.29125 1.73295 7.5ZM5 11.5C5.10753 11.5 5.19565 11.5304 5.26278 11.5781L8.83523 14.5824C8.84936 14.6099 8.86364 14.6383 8.86364 14.6818C8.86364 14.8154 8.76996 14.9091 8.63636 14.9091C8.57251 14.9091 8.5205 14.8868 8.48722 14.8594C8.47118 14.8468 8.45459 14.835 8.4375 14.8239L4.66619 12.2599C4.5957 12.1824 4.54545 12.08 4.54545 11.9545C4.54545 11.6954 4.74089 11.5 5 11.5Z" fill="#666456"/>
</svg>
