<svg width="20" height="20" viewBox="0 0 20 20" fill="none" xmlns="http://www.w3.org/2000/svg">
<path d="M12.7782 6.38897C13.0729 6.38897 13.3556 6.50604 13.5639 6.71441C13.7723 6.92279 13.8894 7.20541 13.8894 7.5001V9.16679C13.8894 9.31413 13.9479 9.45544 14.0521 9.55963C14.1563 9.66382 14.2976 9.72235 14.4449 9.72235C14.5923 9.72235 14.7336 9.66382 14.8378 9.55963C14.942 9.45544 15.0005 9.31413 15.0005 9.16679V7.5001C15.0005 6.91072 14.7664 6.34548 14.3496 5.92873C13.9329 5.51198 13.3676 5.27785 12.7782 5.27785H11.6671V4.16672C11.6671 3.72898 11.5809 3.29552 11.4134 2.89109C11.2459 2.48667 11.0003 2.1192 10.6908 1.80967C10.3813 1.50013 10.0138 1.2546 9.60937 1.08708C9.20495 0.919564 8.77149 0.833344 8.33375 0.833344C7.896 0.833344 7.46254 0.919564 7.05812 1.08708C6.65369 1.2546 6.28622 1.50013 5.97669 1.80967C5.66716 2.1192 5.42162 2.48667 5.25411 2.89109C5.08659 3.29552 5.00037 3.72898 5.00037 4.16672V5.27785H3.88924C3.29987 5.27785 2.73463 5.51198 2.31787 5.92873C1.90112 6.34548 1.66699 6.91072 1.66699 7.5001V13.0557C1.66699 13.6451 1.90112 14.2103 2.31787 14.6271C2.73463 15.0438 3.29987 15.278 3.88924 15.278H8.88931C9.03665 15.278 9.17796 15.2194 9.28215 15.1153C9.38634 15.0111 9.44487 14.8698 9.44487 14.7224C9.44487 14.5751 9.38634 14.4338 9.28215 14.3296C9.17796 14.2254 9.03665 14.1669 8.88931 14.1669H3.88924C3.59455 14.1669 3.31194 14.0498 3.10356 13.8414C2.89518 13.633 2.77812 13.3504 2.77812 13.0557V7.5001C2.77812 7.20541 2.89518 6.92279 3.10356 6.71441C3.31194 6.50604 3.59455 6.38897 3.88924 6.38897H12.7782ZM6.11149 4.16672C6.11149 3.57734 6.34562 3.0121 6.76238 2.59535C7.17913 2.1786 7.74437 1.94447 8.33375 1.94447C8.92312 1.94447 9.48836 2.1786 9.90511 2.59535C10.3219 3.0121 10.556 3.57734 10.556 4.16672V5.27785H6.11149V4.16672Z" fill="black" stroke="black" stroke-width="0.2"/>
<path d="M8.33327 8.05565C8.18593 8.05565 8.04462 8.11418 7.94043 8.21837C7.83624 8.32256 7.77771 8.46387 7.77771 8.61121V9.87789C7.60856 9.97556 7.46814 10.1161 7.3706 10.2853C7.27307 10.4546 7.22187 10.6465 7.22217 10.8418C7.22247 11.0372 7.27425 11.229 7.37229 11.3979C7.47034 11.5668 7.61119 11.7069 7.78064 11.8041C7.95009 11.9012 8.14216 11.952 8.33748 11.9513C8.5328 11.9505 8.72448 11.8983 8.8932 11.7999C9.06191 11.7015 9.2017 11.5603 9.29847 11.3906C9.39524 11.221 9.44557 11.0288 9.4444 10.8335C9.44323 10.6396 9.39133 10.4493 9.29387 10.2817C9.19641 10.1141 9.05677 9.97485 8.88884 9.87789V8.61121C8.88884 8.46387 8.8303 8.32256 8.72612 8.21837C8.62193 8.11418 8.48062 8.05565 8.33327 8.05565Z" fill="black" stroke="black" stroke-width="0.2"/>
<path d="M17.1886 12.7502C17.2921 12.6461 17.3501 12.5053 17.3501 12.3585C17.3501 12.2117 17.2921 12.0709 17.1886 11.9668C17.0845 11.8633 16.9437 11.8053 16.7969 11.8053C16.6502 11.8053 16.5093 11.8633 16.4053 11.9668L15.9664 12.4002C15.6738 12.203 15.3453 12.0652 14.9997 11.9946V11.389C14.9997 11.2417 14.9411 11.1004 14.837 10.9962C14.7328 10.892 14.5915 10.8335 14.4441 10.8335C14.2968 10.8335 14.1555 10.892 14.0513 10.9962C13.9471 11.1004 13.8886 11.2417 13.8886 11.389V12.0001C13.5409 12.0701 13.2106 12.2079 12.9163 12.4057L12.4774 11.9446C12.4255 11.8931 12.3639 11.8524 12.2963 11.8247C12.2286 11.7971 12.1561 11.7831 12.083 11.7835C12.0062 11.78 11.9295 11.7926 11.8577 11.8203C11.786 11.848 11.7208 11.8904 11.6663 11.9446C11.5628 12.0487 11.5047 12.1895 11.5047 12.3363C11.5047 12.483 11.5628 12.6238 11.6663 12.7279L12.0996 13.1668C11.9082 13.4721 11.778 13.8118 11.7163 14.1668H11.1107C10.9634 14.1668 10.8221 14.2254 10.7179 14.3296C10.6137 14.4338 10.5552 14.5751 10.5552 14.7224C10.5552 14.8697 10.6137 15.0111 10.7179 15.1152C10.8221 15.2194 10.9634 15.278 11.1107 15.278H11.7219C11.7953 15.6245 11.9329 15.9542 12.1274 16.2502L11.6941 16.6835C11.642 16.7352 11.6007 16.7966 11.5725 16.8643C11.5443 16.932 11.5297 17.0047 11.5297 17.078C11.5297 17.1513 11.5443 17.2239 11.5725 17.2916C11.6007 17.3593 11.642 17.4208 11.6941 17.4724C11.746 17.5239 11.8076 17.5647 11.8752 17.5923C11.9429 17.62 12.0154 17.634 12.0885 17.6336C12.1616 17.634 12.2341 17.62 12.3018 17.5923C12.3695 17.5647 12.4311 17.5239 12.483 17.4724L12.9163 17.0335C13.2103 17.2331 13.5406 17.3728 13.8886 17.4447V18.0558C13.8886 18.2031 13.9471 18.3444 14.0513 18.4486C14.1555 18.5528 14.2968 18.6113 14.4441 18.6113C14.5915 18.6113 14.7328 18.5528 14.837 18.4486C14.9411 18.3444 14.9997 18.2031 14.9997 18.0558V17.4447C15.3476 17.3728 15.678 17.2331 15.9719 17.0335L16.4108 17.4724C16.4626 17.5239 16.524 17.5646 16.5916 17.5923C16.6591 17.62 16.7314 17.6341 16.8044 17.6339C16.8774 17.6336 16.9497 17.619 17.017 17.5908C17.0844 17.5626 17.1455 17.5215 17.1969 17.4697C17.2484 17.4179 17.2891 17.3564 17.3168 17.2889C17.3445 17.2214 17.3586 17.149 17.3584 17.076C17.3581 17.003 17.3435 16.9308 17.3153 16.8635C17.2871 16.7961 17.246 16.735 17.1942 16.6835L16.7608 16.2502C16.9557 15.955 17.0915 15.6248 17.1608 15.278H17.7775C17.9248 15.278 18.0661 15.2194 18.1703 15.1152C18.2745 15.0111 18.3331 14.8697 18.3331 14.7224C18.3331 14.5751 18.2745 14.4338 18.1703 14.3296C18.0661 14.2254 17.9248 14.1668 17.7775 14.1668H17.1664C17.0951 13.8179 16.9574 13.486 16.7608 13.1891L17.1886 12.7502ZM14.4441 16.3891C14.1145 16.3891 13.7922 16.2913 13.5182 16.1082C13.2441 15.9251 13.0304 15.6648 12.9043 15.3602C12.7781 15.0557 12.7451 14.7206 12.8095 14.3973C12.8738 14.0739 13.0325 13.777 13.2656 13.5439C13.4987 13.3108 13.7957 13.1521 14.119 13.0877C14.4423 13.0234 14.7774 13.0564 15.0819 13.1826C15.3865 13.3087 15.6468 13.5224 15.8299 13.7964C16.0131 14.0705 16.1108 14.3928 16.1108 14.7224C16.1108 15.1644 15.9352 15.5884 15.6226 15.9009C15.3101 16.2135 14.8861 16.3891 14.4441 16.3891Z" fill="black" stroke="black" stroke-width="0.2"/>
</svg>
