<svg width="20" height="20" viewBox="0 0 20 20" fill="none" xmlns="http://www.w3.org/2000/svg">
<path d="M18.3337 6.10399C18.3337 5.36916 18.0417 4.66443 17.5221 4.14482C17.0025 3.62522 16.2978 3.33331 15.563 3.33331H4.43767C3.70284 3.33331 2.99811 3.62522 2.4785 4.14482C1.9589 4.66443 1.66699 5.36916 1.66699 6.10399V13.9898C1.66699 14.7246 1.9589 15.4293 2.4785 15.9489C2.99811 16.4685 3.70284 16.7604 4.43767 16.7604H15.563C16.2978 16.7604 17.0025 16.4685 17.5221 15.9489C18.0417 15.4293 18.3337 14.7246 18.3337 13.9898V6.10399ZM4.43767 4.61209H15.563C15.9587 4.61209 16.3381 4.76927 16.6179 5.04905C16.8977 5.32884 17.0549 5.70831 17.0549 6.10399V9.13042L11.5988 12.3273L7.57066 8.81072C7.46297 8.71634 7.32672 8.66084 7.18374 8.65311C7.04075 8.64538 6.89931 8.68587 6.78208 8.7681L2.94576 11.5601V6.10399C2.94576 5.70831 3.10295 5.32884 3.38273 5.04905C3.66252 4.76927 4.04199 4.61209 4.43767 4.61209ZM15.563 15.4817H4.43767C4.04199 15.4817 3.66252 15.3245 3.38273 15.0447C3.10295 14.7649 2.94576 14.3854 2.94576 13.9898V13.1372L7.10177 10.1108L11.0873 13.5848C11.1891 13.6725 11.316 13.7259 11.4499 13.7374C11.5838 13.7489 11.718 13.7178 11.8332 13.6487L17.0549 10.601V13.9898C17.0549 14.3854 16.8977 14.7649 16.6179 15.0447C16.3381 15.3245 15.9587 15.4817 15.563 15.4817Z" fill="black"/>
<path d="M11.4918 9.85505C11.9091 9.85505 12.3171 9.7313 12.664 9.49946C13.011 9.26761 13.2815 8.93808 13.4412 8.55253C13.6009 8.16698 13.6427 7.74274 13.5612 7.33344C13.4798 6.92415 13.2789 6.54818 12.9838 6.2531C12.6887 5.95801 12.3127 5.75706 11.9034 5.67564C11.4942 5.59423 11.0699 5.63602 10.6844 5.79571C10.2988 5.95541 9.96928 6.22585 9.73743 6.57284C9.50558 6.91982 9.38184 7.32776 9.38184 7.74508C9.38184 8.30468 9.60414 8.84136 9.99983 9.23705C10.3955 9.63275 10.9322 9.85505 11.4918 9.85505ZM11.4918 6.91387C11.6562 6.91387 11.8169 6.96262 11.9536 7.05396C12.0903 7.14529 12.1968 7.27511 12.2597 7.42699C12.3227 7.57887 12.3391 7.746 12.307 7.90724C12.275 8.06847 12.1958 8.21658 12.0796 8.33283C11.9633 8.44907 11.8152 8.52824 11.654 8.56031C11.4927 8.59238 11.3256 8.57592 11.1737 8.51301C11.0218 8.4501 10.892 8.34356 10.8007 8.20687C10.7094 8.07018 10.6606 7.90947 10.6606 7.74508C10.6606 7.52463 10.7482 7.31321 10.9041 7.15733C11.0599 7.00145 11.2714 6.91387 11.4918 6.91387Z" fill="black"/>
</svg>
